<svg width="340" height="202" viewBox="0 0 340 202" fill="none" xmlns="http://www.w3.org/2000/svg">
<rect opacity="0.1" width="340" height="202" rx="20" fill="#93C5FD"/>
<line x1="93.5" y1="2.81937e-08" x2="93.5" y2="202" stroke="#93C5FD" stroke-dasharray="2 2"/>
<line x1="144.5" y1="2.81937e-08" x2="144.5" y2="202" stroke="#93C5FD" stroke-dasharray="2 2"/>
<line x1="195.5" y1="2.81937e-08" x2="195.5" y2="202" stroke="#93C5FD" stroke-dasharray="2 2"/>
<line x1="247.5" y1="2.81937e-08" x2="247.5" y2="202" stroke="#93C5FD" stroke-dasharray="2 2"/>
<line x1="298.5" y1="2.81937e-08" x2="298.5" y2="202" stroke="#93C5FD" stroke-dasharray="2 2"/>
<line x1="42.5" y1="2.81937e-08" x2="42.5" y2="202" stroke="#93C5FD" stroke-dasharray="2 2"/>
<line x1="340" y1="24.5" y2="24.5" stroke="#93C5FD" stroke-dasharray="2 2"/>
<line x1="340" y1="49.5" y2="49.5" stroke="#93C5FD" stroke-dasharray="2 2"/>
<line x1="340" y1="75.5" y2="75.5" stroke="#93C5FD" stroke-dasharray="2 2"/>
<line x1="340" y1="100.5" y2="100.5" stroke="#93C5FD" stroke-dasharray="2 2"/>
<line x1="340" y1="125.5" y2="125.5" stroke="#93C5FD" stroke-dasharray="2 2"/>
<line x1="340" y1="151.5" y2="151.5" stroke="#93C5FD" stroke-dasharray="2 2"/>
<line x1="340" y1="176.5" y2="176.5" stroke="#93C5FD" stroke-dasharray="2 2"/>
<path d="M152.5 101C141.109 101 123.333 101 123.333 101C123.333 101 126.541 83.325 135 77.6667C144.45 71.3667 164.166 77.6667 164.166 77.6667" fill="#93C5FD"/>
<path d="M152.5 102C152.5 101.333 152.5 100.667 152.5 100C150.642 100 148.774 100 146.908 100C139.053 100 131.175 100 123.333 100L124.317 101.179C126.179 92.8753 128.874 83.5525 135.556 78.4979C143.769 73.7973 154.668 76.1247 163.862 78.6193L163.272 77.2195C160.217 83.33 157.161 89.4406 154.106 95.5512C153.272 97.2184 152.439 98.8856 151.605 100.553C152.202 100.851 152.798 101.149 153.394 101.447C154.228 99.78 155.061 98.1128 155.895 96.4456C158.95 90.335 162.005 84.2245 165.061 78.1139C165.353 77.5287 165.094 76.9133 164.471 76.7141C154.869 74.2033 144.089 71.4836 134.445 76.8346C126.748 82.7955 124.363 92.1597 122.349 100.821C122.23 101.48 122.664 102 123.333 102C131.175 102 139.053 102 146.908 102C148.774 102 150.642 102 152.5 102ZM152.5 100V102C152.826 102 153.248 101.739 153.394 101.447L151.605 100.553L152.5 100Z" fill="#3B82F6"/>
<path d="M170 118.5V147.667C170 147.667 187.675 144.458 193.333 136C199.633 126.55 193.333 106.833 193.333 106.833" fill="#93C5FD" stroke="#3B82F6" stroke-width="2" stroke-linecap="round" stroke-linejoin="round"/>
<path d="M126.25 127.25C117.5 134.6 114.583 156.417 114.583 156.417C114.583 156.417 136.4 153.5 143.75 144.75C147.891 139.85 147.833 132.325 143.225 127.775C140.957 125.611 137.971 124.36 134.838 124.263C131.705 124.167 128.646 125.23 126.25 127.25Z" fill="#93C5FD" stroke="#3B82F6" stroke-width="2" stroke-linecap="round" stroke-linejoin="round"/>
<path d="M170 118.5L152.5 101C155.604 92.9465 159.513 85.2269 164.167 77.9582C170.964 67.0906 180.428 58.1426 191.659 51.9654C202.891 45.7881 215.516 42.587 228.333 42.6665C228.333 58.5332 223.783 86.4165 193.333 106.833C185.965 111.492 178.148 115.401 170 118.5Z" fill="#93C5FD" stroke="#3B82F6" stroke-width="2" stroke-linecap="round" stroke-linejoin="round"/>
</svg>
