<svg width="340" height="202" viewBox="0 0 340 202" fill="none" xmlns="http://www.w3.org/2000/svg">
<rect opacity="0.1" width="340" height="202" rx="20" fill="#93C5FD"/>
<line x1="93.5" y1="2.81937e-08" x2="93.5" y2="202" stroke="#93C5FD" stroke-dasharray="2 2"/>
<line x1="144.5" y1="2.81937e-08" x2="144.5" y2="202" stroke="#93C5FD" stroke-dasharray="2 2"/>
<line x1="195.5" y1="2.81937e-08" x2="195.5" y2="202" stroke="#93C5FD" stroke-dasharray="2 2"/>
<line x1="247.5" y1="2.81937e-08" x2="247.5" y2="202" stroke="#93C5FD" stroke-dasharray="2 2"/>
<line x1="298.5" y1="2.81937e-08" x2="298.5" y2="202" stroke="#93C5FD" stroke-dasharray="2 2"/>
<line x1="42.5" y1="2.81937e-08" x2="42.5" y2="202" stroke="#93C5FD" stroke-dasharray="2 2"/>
<line x1="340" y1="24.5" y2="24.5" stroke="#93C5FD" stroke-dasharray="2 2"/>
<line x1="340" y1="49.5" y2="49.5" stroke="#93C5FD" stroke-dasharray="2 2"/>
<line x1="340" y1="75.5" y2="75.5" stroke="#93C5FD" stroke-dasharray="2 2"/>
<line x1="340" y1="100.5" y2="100.5" stroke="#93C5FD" stroke-dasharray="2 2"/>
<line x1="340" y1="125.5" y2="125.5" stroke="#93C5FD" stroke-dasharray="2 2"/>
<line x1="340" y1="151.5" y2="151.5" stroke="#93C5FD" stroke-dasharray="2 2"/>
<line x1="340" y1="176.5" y2="176.5" stroke="#93C5FD" stroke-dasharray="2 2"/>
<path d="M123.334 112.667C122.23 112.67 121.148 112.361 120.213 111.774C119.278 111.187 118.528 110.347 118.052 109.351C117.575 108.355 117.391 107.245 117.521 106.149C117.65 105.052 118.088 104.015 118.784 103.158L176.534 43.6582C176.967 43.1582 177.557 42.8203 178.208 42.7C178.858 42.5797 179.53 42.6841 180.114 42.9962C180.697 43.3082 181.157 43.8093 181.418 44.4172C181.679 45.0251 181.726 45.7037 181.55 46.3416L170.35 81.4582C170.02 82.3421 169.909 83.2929 170.027 84.2291C170.145 85.1653 170.488 86.0589 171.028 86.8332C171.567 87.6076 172.286 88.2396 173.123 88.675C173.96 89.1104 174.89 89.3363 175.834 89.3332H216.667C217.771 89.3295 218.853 89.639 219.788 90.2259C220.723 90.8127 221.472 91.6528 221.949 92.6486C222.425 93.6443 222.609 94.7548 222.48 95.8511C222.35 96.9473 221.912 97.9843 221.217 98.8416L163.467 158.342C163.034 158.842 162.444 159.179 161.793 159.3C161.142 159.42 160.47 159.316 159.887 159.004C159.304 158.692 158.844 158.19 158.583 157.583C158.322 156.975 158.275 156.296 158.45 155.658L169.65 120.542C169.981 119.658 170.092 118.707 169.974 117.771C169.856 116.835 169.512 115.941 168.973 115.167C168.434 114.392 167.715 113.76 166.878 113.325C166.041 112.889 165.111 112.663 164.167 112.667H123.334Z" fill="#93C5FD" stroke="#3B82F6" stroke-width="2" stroke-linecap="round" stroke-linejoin="round"/>
</svg>
